<svg width="32" height="32" viewBox="0 0 32 32" fill="none" xmlns="http://www.w3.org/2000/svg">
<g id="Mask Group">
<path id="Polygon 3" d="M13.2473 1.05997C14.9507 0.0765275 17.0493 0.0765278 18.7527 1.05997L27.5619 6.14595C29.2652 7.12939 30.3145 8.94687 30.3145 10.9137V21.0857C30.3145 23.0526 29.2652 24.8701 27.5619 25.8535L18.7527 30.9395C17.0493 31.9229 14.9507 31.9229 13.2473 30.9395L4.43811 25.8535C2.73474 24.8701 1.68542 23.0526 1.68542 21.0857V10.9137C1.68542 8.94687 2.73474 7.12939 4.43811 6.14595L13.2473 1.05997Z" fill="url(#paint0_linear_1593_5051)"/>
<mask id="mask0_1593_5051" style="mask-type:alpha" maskUnits="userSpaceOnUse" x="1" y="0" width="30" height="32">
<path id="Polygon 4" d="M13.2473 1.05997C14.9507 0.0765275 17.0493 0.0765278 18.7527 1.05997L27.5619 6.14595C29.2652 7.12939 30.3145 8.94687 30.3145 10.9137V21.0857C30.3145 23.0526 29.2652 24.8701 27.5619 25.8535L18.7527 30.9395C17.0493 31.9229 14.9507 31.9229 13.2473 30.9395L4.43811 25.8535C2.73474 24.8701 1.68542 23.0526 1.68542 21.0857V10.9137C1.68542 8.94687 2.73474 7.12939 4.43811 6.14595L13.2473 1.05997Z" fill="#83E1E1"/>
</mask>
<g mask="url(#mask0_1593_5051)">
<path id="Vector 5" d="M6.28539 12.4722L-3.16131 18.361L-11.3453 23.8607C-11.6497 24.0653 -11.8323 24.4079 -11.8323 24.7746V50.8599C-11.8323 51.468 -11.3393 51.961 -10.7312 51.961H43.7376C44.3457 51.961 44.8387 51.4681 44.8387 50.8599V27.5603C44.8387 27.1831 44.6456 26.8322 44.327 26.6303L16.7542 9.15569C16.3188 8.87976 15.7502 8.94282 15.3859 9.30745L10.636 14.0609C10.206 14.4913 9.50836 14.4913 9.07829 14.0609L7.64674 12.6283C7.28456 12.2658 6.72022 12.2011 6.28539 12.4722Z" fill="url(#paint1_linear_1593_5051)"/>
<path id="Vector 6" d="M6.62637 15L1 19.5333H5.30769C5.72967 19.5333 7.30037 21.8444 8.03297 23L9 17.5778L6.62637 15Z" fill="url(#paint2_linear_1593_5051)"/>
<path id="Vector 7" d="M13.0193 17L16 12L28 19L25.2516 20.2191L18.5 20L12 26L15 19L13.0193 17Z" fill="url(#paint3_linear_1593_5051)"/>
</g>
</g>
<defs>
<linearGradient id="paint0_linear_1593_5051" x1="16" y1="-0.529297" x2="16" y2="32.5288" gradientUnits="userSpaceOnUse">
<stop stop-color="#22AFFF"/>
<stop offset="1" stop-color="#1D41FF"/>
</linearGradient>
<linearGradient id="paint1_linear_1593_5051" x1="16.5032" y1="8.68359" x2="16.5032" y2="51.961" gradientUnits="userSpaceOnUse">
<stop stop-color="#1B3573"/>
<stop offset="1" stop-color="#131E39"/>
</linearGradient>
<linearGradient id="paint2_linear_1593_5051" x1="8.5" y1="16" x2="-3" y2="33" gradientUnits="userSpaceOnUse">
<stop stop-color="#FCFCFD"/>
<stop offset="1" stop-color="white" stop-opacity="0"/>
</linearGradient>
<linearGradient id="paint3_linear_1593_5051" x1="16.5" y1="12" x2="27" y2="50" gradientUnits="userSpaceOnUse">
<stop stop-color="white"/>
<stop offset="1" stop-color="#192E5F"/>
</linearGradient>
</defs>
</svg>
